<?xml version="1.0" encoding="UTF-8"?>
<svg id="Layer_1" data-name="Layer 1" xmlns="http://www.w3.org/2000/svg" xmlns:xlink="http://www.w3.org/1999/xlink" viewBox="0 0 100 100">
  <defs>
    <style>
      .cls-1 {
        fill: url(#linear-gradient-2);
      }

      .cls-2 {
        fill: url(#linear-gradient-6);
      }

      .cls-3 {
        fill: url(#linear-gradient-11);
      }

      .cls-4 {
        fill: url(#linear-gradient-10);
      }

      .cls-5 {
        fill: url(#linear-gradient-5);
      }

      .cls-6 {
        fill: #141414;
      }

      .cls-7 {
        fill: url(#linear-gradient-7);
      }

      .cls-8 {
        fill: url(#linear-gradient-9);
      }

      .cls-9 {
        fill: url(#linear-gradient-3);
      }

      .cls-10 {
        fill: url(#linear-gradient);
      }

      .cls-11 {
        fill: url(#linear-gradient-4);
      }

      .cls-12 {
        fill: url(#linear-gradient-8);
      }

      .cls-13 {
        fill: url(#linear-gradient-12);
      }

      .cls-14 {
        fill: url(#linear-gradient-13);
      }
    </style>
    <linearGradient id="linear-gradient" x1="11.55" y1="41.67" x2="28.82" y2="41.67" gradientUnits="userSpaceOnUse">
      <stop offset="0" stop-color="#b5843a"/>
      <stop offset=".05" stop-color="#c39951"/>
      <stop offset=".13" stop-color="#dbbb77"/>
      <stop offset=".21" stop-color="#ecd492"/>
      <stop offset=".28" stop-color="#f7e3a3"/>
      <stop offset=".33" stop-color="#fbe9a9"/>
      <stop offset=".99" stop-color="#b47b2b"/>
    </linearGradient>
    <linearGradient id="linear-gradient-2" x1="33.03" y1="40.14" x2="47.21" y2="40.14" xlink:href="#linear-gradient"/>
    <linearGradient id="linear-gradient-3" x1="52.75" y1="45.8" x2="59.77" y2="45.8" xlink:href="#linear-gradient"/>
    <linearGradient id="linear-gradient-4" x1="46.17" y1="45.8" x2="53.19" y2="45.8" xlink:href="#linear-gradient"/>
    <linearGradient id="linear-gradient-5" x1="58.34" y1="68.92" x2="61.69" y2="68.92" xlink:href="#linear-gradient"/>
    <linearGradient id="linear-gradient-6" x1="5" y1="50" x2="95" y2="50" xlink:href="#linear-gradient"/>
    <linearGradient id="linear-gradient-7" x1="24.77" y1="52.04" x2="68.39" y2="52.04" xlink:href="#linear-gradient"/>
    <linearGradient id="linear-gradient-8" x1="59.37" y1="62.06" x2="83.56" y2="62.06" xlink:href="#linear-gradient"/>
    <linearGradient id="linear-gradient-9" x1="37.26" y1="45.84" x2="46.14" y2="45.84" xlink:href="#linear-gradient"/>
    <linearGradient id="linear-gradient-10" x1="33.03" y1="40.14" x2="47.21" y2="40.14" xlink:href="#linear-gradient"/>
    <linearGradient id="linear-gradient-11" x1="49.98" y1="68.96" x2="57.99" y2="68.96" xlink:href="#linear-gradient"/>
    <linearGradient id="linear-gradient-12" x1="66.17" y1="68.97" x2="72.52" y2="68.97" xlink:href="#linear-gradient"/>
    <linearGradient id="linear-gradient-13" x1="5" y1="50" x2="95" y2="50" gradientUnits="userSpaceOnUse">
      <stop offset="0" stop-color="#bd8a1c"/>
      <stop offset=".04" stop-color="#cba039"/>
      <stop offset=".09" stop-color="#dbb859"/>
      <stop offset=".14" stop-color="#e8cc73"/>
      <stop offset=".2" stop-color="#f2db87"/>
      <stop offset=".26" stop-color="#f9e696"/>
      <stop offset=".34" stop-color="#fded9e"/>
      <stop offset=".48" stop-color="#ffefa1"/>
      <stop offset=".62" stop-color="#fded9e"/>
      <stop offset=".71" stop-color="#f9e696"/>
      <stop offset=".78" stop-color="#f2db87"/>
      <stop offset=".85" stop-color="#e8cc73"/>
      <stop offset=".91" stop-color="#dbb859"/>
      <stop offset=".96" stop-color="#cba039"/>
      <stop offset="1" stop-color="#bd8a1c"/>
    </linearGradient>
  </defs>
  <rect class="cls-6" width="100" height="100"/>
  <g>
    <g>
      <path class="cls-10" d="M26.55,33.85c-.09,.2-.13,.3-.17,.4-.66,1.39-1.42,2.75-1.97,4.19-.88,2.29-1.6,4.63-2.44,6.94-.49,1.35-1.08,2.66-2.06,3.75-1.3,1.46-3.71,1.19-4.59,.38-.63-.59-.81-1.51-.39-2.3,.39-.72,.94-.92,1.87-.68,.26,.07,.51,.05,.56-.27,.06-.34-.2-.45-.45-.41-.63,.09-1.29,.15-1.87,.38-.95,.37-1.4,1.18-1.39,2.18,.01,.92,.62,1.48,1.4,1.81,2.11,.9,4.05,.48,5.81-.89,1.28-1,2-2.39,2.48-3.9,.96-3.03,1.9-6.06,2.87-9.09,.42-1.29,1.14-2.38,2.3-3.14,.14-.09,.22-.27,.32-.41-.18,0-.36-.02-.53,0-.12,.02-.24,.09-.36,.13-1.04,.38-2.11,.59-3.23,.44-1.53-.21-3.07-.4-4.6-.61-1.68-.23-3.32-.15-4.86,.63-2.63,1.34-4.04,3.91-3.61,6.56,.5,3.05,2.93,5.12,6.1,5.15,1.59,.02,3.04-.38,4.17-1.57,.25-.26,.51-.55,.3-.94-.08-.15-.31-.29-.49-.31-.43-.05-.55,.31-.69,.62-.04,.09-.09,.17-.13,.26-.43,.84-1.11,1.34-2.06,1.39-1.97,.1-3.61-.61-4.84-2.15-1.14-1.43-1.32-3.12-1.01-4.87,.43-2.41,2.78-4.39,5.23-4.34,.95,.02,1.89,.17,2.84,.27,1.41,.16,2.81,.35,4.22,.49,.39,.04,.79-.06,1.29-.1Z"/>
      <path class="cls-1" d="M45.65,30.12c-1.88,.13-3.42,.9-4.76,2.11-1.86,1.67-3.17,3.75-4.09,6.04-1.28,3.18-2.42,6.42-3.61,9.65-.11,.31-.16,.66-.16,.99-.01,.79,.5,1.28,1.28,1.23,1.1-.07,1.72-.79,2.18-1.68,.06-.12,0-.31,0-.47-.13,.08-.29,.12-.38,.23-.23,.27-.38,.62-.64,.84-.17,.14-.52,.19-.74,.12-.15-.05-.26-.37-.3-.58-.04-.19,.02-.42,.08-.61,.86-2.67,1.65-5.36,2.6-8,.97-2.68,2.3-5.19,4.27-7.3,1.58-1.69,2.93-2.03,5-1.27,.32,.12,.58,.04,.74-.26,.16-.31,.03-.56-.25-.68-.4-.16-.82-.25-1.23-.36Z"/>
      <path class="cls-9" d="M55.27,49.69c-.07,0-.26-.01-.45-.07-.7-.2-.82-.57-.39-1.15,.1-.14,.17-.32,.18-.48,.04-.43-.26-.8-.67-.88-.41-.09-.85,.17-1.05,.61-.38,.84-.01,1.8,.88,2.17,1.04,.43,2.11,.42,3.17,.06,1.23-.42,1.97-1.75,1.48-2.94-.27-.66-.85-1.19-1.31-1.76-.37-.46-.81-.88-1.13-1.37-.36-.57-.24-1.18,.21-1.53,.53-.4,1.13-.54,1.78-.4,.53,.12,.6,.35,.21,.73-.28,.28-.43,.62-.23,.96,.14,.24,.44,.53,.67,.52,.3,0,.69-.21,.87-.46,.55-.74,.22-1.76-.66-2.05-1.12-.37-2.27-.33-3.26,.33-1.26,.84-1.66,2.08-.48,3.34,.5,.53,1.06,1,1.53,1.55,.27,.32,.51,.74,.56,1.14,.13,.97-.64,1.65-1.92,1.7Z"/>
      <path class="cls-11" d="M48.69,49.69c-.07,0-.26-.01-.45-.07-.7-.2-.82-.57-.39-1.15,.1-.14,.17-.32,.18-.48,.04-.43-.26-.8-.67-.88-.41-.09-.85,.17-1.05,.61-.38,.84-.01,1.8,.88,2.17,1.04,.43,2.11,.42,3.17,.06,1.23-.42,1.97-1.75,1.48-2.94-.27-.66-.85-1.19-1.31-1.76-.37-.46-.81-.88-1.13-1.37-.36-.57-.24-1.18,.21-1.53,.53-.4,1.13-.54,1.78-.4,.53,.12,.6,.35,.21,.73-.28,.28-.43,.62-.23,.96,.14,.24,.44,.53,.67,.52,.3,0,.69-.21,.87-.46,.55-.74,.22-1.76-.66-2.05-1.12-.37-2.27-.33-3.26,.33-1.26,.84-1.66,2.08-.48,3.34,.5,.53,1.06,1,1.53,1.55,.27,.32,.51,.74,.56,1.14,.13,.97-.64,1.65-1.92,1.7Z"/>
      <path class="cls-5" d="M58.54,71.55c0,1.09,.41,1.46,1.19,1.34,.93-.14,1.5-.76,1.92-1.54,.06-.11,.02-.26,.02-.4-.12,.07-.27,.12-.37,.21-.22,.23-.37,.55-.63,.72-.18,.12-.52,.14-.71,.04-.14-.08-.19-.4-.21-.62-.01-.16,.08-.34,.15-.5,.27-.66,.57-1.3,.82-1.96,.31-.83,.66-1.65,.85-2.51,.2-.88-.45-1.49-1.36-1.4-.75,.08-1.3,.53-1.78,1.06-.08,.09-.07,.25-.1,.38,.14-.03,.29-.04,.41-.1,.33-.17,.62-.41,.96-.53,.52-.17,.83,.1,.77,.63-.03,.3-.13,.6-.25,.87-.41,.96-.86,1.91-1.25,2.88-.22,.55-.36,1.13-.44,1.42Z"/>
      <path class="cls-2" d="M54.36,6.16c.52,.07,1.03,.14,1.55,.22,7.76,1.16,14.7,4.21,20.81,9.1,6.77,5.4,11.55,12.22,14.37,20.41,.01,.03,.03,.06,.03,.09-.01,.17-.03,.33-.05,.5-.12-.11-.29-.21-.34-.34-.38-.98-.7-1.98-1.12-2.94-3.96-9.24-10.31-16.36-19.04-21.34-5.2-2.96-10.8-4.78-16.76-5.3-15.14-1.34-27.83,3.67-37.88,15.06-5.67,6.43-9.07,14.01-10.11,22.53-1.63,13.27,1.93,25.03,10.84,35.04,6.49,7.28,14.6,11.88,24.19,13.7,10.11,1.92,19.78,.5,28.91-4.31,3.68-1.94,7.03-4.35,9.87-7.39,1.77-1.89,2.81-4.17,3.18-6.72,.15-1-.3-1.96-.8-2.84-.1-.18-.21-.37-.34-.53-1.07-1.27-1.26-2.75-.88-4.29,.43-1.75,.99-3.47,1.5-5.2,.13-.44,.24-.89,.45-1.33,.04,.23,.06,.47,.11,.7,.17,.69,.31,1.39,.56,2.05,.39,1.01,.61,2.04,.52,3.12-.28,3.13-.54,6.26-.86,9.38-.07,.68-.35,1.33-.53,2.02,.05-.04,.11-.08,.14-.13,2.08-3.19,3.91-6.5,5.02-10.16,.25-.84,.33-1.73,.47-2.61,.09-.55-.12-1-.49-1.41-.64-.7-1.28-1.41-1.89-2.14-1.2-1.43-1.72-3.08-1.51-4.94,.18-1.6,.53-3.19,.25-4.86,.12,.13,.26,.24,.35,.38,1.28,1.97,2.1,4.08,2.2,6.46,.07,1.78,.82,3.4,1.48,5.06,.07-.43,.14-.86,.2-1.28,.25-1.82,.39-3.67-.15-5.43-.52-1.71-.64-3.44-.68-5.2-.02-1.08-.48-2.03-1.04-2.93-.36-.58-.71-1.16-1.04-1.75-.11-.19-.15-.43-.22-.62,.77,.71,1.54,1.38,2.28,2.09,1.15,1.11,1.64,2.52,1.82,4.06,.23,1.93-.06,3.83-.34,5.73-.02,.16-.05,.32-.04,.48,.11,4.14-.83,8.06-2.38,11.86-.48,1.18-1.03,2.32-1.55,3.48,.03,.03,.06,.06,.09,.09,.57-.65,1.2-1.26,1.71-1.96,.55-.75,1.08-1.54,1.44-2.39,.31-.74,.43-1.57,.52-2.38,.11-1.04,.04-2.1,.16-3.14,.19-1.73,1.08-3.19,1.94-4.65,.72-1.22,1.38-2.48,2.06-3.72,.02-.04,.06-.06,.14-.13,0,.2,.03,.35,.02,.5-.06,1.55-.13,3.09-.19,4.64-.05,1.24,0,2.49-.13,3.72-.4,3.43-1.92,6.19-5.01,7.94-1.82,1.03-3.2,2.45-4.33,4.24-2.05,3.27-4.61,6.13-7.7,8.48-.27,.2-.52,.43-.78,.65-.02,.02-.01,.06-.03,.13,1.53-.22,2.94-.71,4.22-1.57,1.43-.96,2.48-2.29,3.6-3.56,1.99-2.27,4.13-4.4,6.57-6.19,1.47-1.08,3.2-1.57,4.97-1.93,.07-.01,.15,0,.29,0-.62,.45-1.2,.85-1.74,1.29-1.47,1.21-2.54,2.78-3.63,4.32-1.07,1.51-2.13,3.04-3.29,4.48-1.06,1.32-2.43,2.3-4.03,2.93-1.04,.41-2.12,.37-3.2,.34-1.44-.04-2.88-.08-4.27,.34-.35,.1-.71,.23-1.01,.43-6.11,4.09-12.82,6.54-20.14,7.25-9.95,.97-19.26-1.05-27.73-6.38-10.73-6.75-17.46-16.39-20.08-28.83-.94-4.44-1.1-8.93-.62-13.43,.7-6.48,2.72-12.52,6.13-18.09,4.45-7.25,10.46-12.81,18.04-16.64,4.88-2.46,10.05-3.93,15.49-4.45,3.21-.27,6.36-.27,9.43,.08Zm33.65,65.54s.05,.04,.06,.04c.06-.02,.12-.03,.18-.06,2.01-1.04,3.3-2.68,4-4.81,.68-2.05,.74-4.18,.79-6.31,.02-.81,0-1.63,0-2.44-.12,.11-.18,.24-.21,.37-.35,1.31-.7,2.61-1.05,3.92-.69,2.6-1.42,5.19-2.73,7.57-.32,.58-.69,1.14-1.03,1.72Zm-5.65-9.31c-.46,1.04-1.1,4.16-1.26,5.52-.21,1.8,.93,2.94,1.79,4.24,.04,0,.08-.02,.12-.02-.22-3.28-.44-6.57-.65-9.73Zm7.34,5.63c1.02-3.37,2.04-6.73,3.06-10.1-2.57,2.9-3.54,6.28-3.06,10.1Zm-6.88-5.45c-.21,.88,.15,5.81,.51,6.97,.65-2.02,.38-5.76-.51-6.97Z"/>
      <path class="cls-7" d="M68.39,41.68c-1.37,2.88-2.12,5.92-3.13,8.87-.74,2.13-1.71,4.12-3.39,5.67-1.61,1.48-3.49,2.17-5.69,1.72-.39-.08-.77-.24-1.12-.43-.28-.15-.43-.13-.64,.11-1.62,1.82-2.91,3.86-4.03,6.01-1.48,2.82-2.64,5.78-3.61,8.81-.06,.19-.15,.41-.3,.53-.51,.4-.89,.28-1.09-.35-.62-1.98-.88-4.03-1.08-6.09-.18-1.81-.32-3.62-.49-5.55-.11,.19-.16,.27-.21,.36-1.44,2.83-2.8,5.71-4.35,8.48-1.54,2.75-3.94,4.28-7.19,4.12-.83-.04-1.7-.29-2.45-.65-1.96-.94-2.46-2.77-1.85-4.95,.53-1.86,2.32-3.29,4.25-3.46,.19-.02,.46,.09,.57,.23,.09,.11,.05,.43-.05,.55-.1,.12-.37,.2-.54,.16-1.32-.29-1.89-.08-2.66,1.05-1.12,1.65-1.05,4.05,.21,5.4,1.03,1.1,2.39,1.31,3.8,1.1,2.47-.37,4.29-1.78,5.44-3.93,1.49-2.78,2.86-5.64,4.27-8.47,.15-.29,.22-.62,.34-1-3.05,.08-5.67-.86-8.02-2.63-1.19,1.2-2.03,2.52-2.17,4.2-.16,1.88,1.2,3.41,3.08,3.5,.51,.02,1.03-.02,1.54-.1,.48-.08,.93-.23,1.15-.77,.06-.15,.36-.24,.56-.27,.1-.01,.34,.2,.32,.27-.04,.2-.13,.44-.29,.55-1.29,.94-3.97,.98-5.31,.12-1.27-.82-1.83-2.4-1.43-4.11,.29-1.26,.92-2.33,1.77-3.29,.1-.11,.2-.21,.29-.32,.02-.02,.02-.06,.04-.14-3.93-3.41-5.93-8-7.52-12.84-.3,.04-.54,.07-.78,.09-.55,.05-1.06-.06-1.49-.43-.34-.29-.46-.66-.32-1.09,.14-.42,.47-.6,.89-.63,.86-.07,1.55,.28,2.05,.96,.22,.3,.39,.29,.67,.1,1.22-.82,2.11-1.94,2.89-3.15,1.14-1.77,2.21-3.6,3.34-5.39,.89-1.41,1.9-2.74,3.23-3.76,.44-.34,1-.58,1.55-.71,.5-.12,.98,.3,1.12,.8,.14,.49-.03,1.05-.49,1.24-.29,.12-.69,.11-1,.04-.35-.08-.45-.42-.42-.78,0-.11-.01-.22-.02-.45-.23,.13-.43,.19-.55,.33-.49,.58-1.01,1.14-1.4,1.78-1.29,2.1-2.5,4.25-3.79,6.36-1.08,1.76-2.51,3.19-4.33,4.19-.07,.04-.13,.09-.17,.12,1.74,4.26,3.66,8.39,6.81,11.81,.12,.13,.26,.24,.37,.39,.21,.28,.4,.26,.68,.06,1.18-.84,2.46-1.41,3.93-1.46,1.7-.06,3.64,.62,4.17,2.98,.07,.31,.06,.72,.26,.92,.41,.4,.2,.8,.25,1.24,.34,3.67,.79,7.34,1.21,11,.02,.21,.11,.42,.17,.63,.04,0,.09,0,.13,.01,.05-.14,.11-.27,.16-.41,1.4-4,3.05-7.89,5.49-11.38,.58-.83,1.25-1.6,1.9-2.38,.2-.24,.2-.37,.02-.61-.81-1.08-.76-2.5,.19-3.5,1.21-1.29,2.78-1.81,4.51-1.93,.08,0,.19-.02,.24,.03,.13,.11,.24,.25,.35,.38-.15,.11-.29,.26-.46,.33-.1,.04-.25-.05-.37-.08-1.13-.3-2.04,.11-2.78,.92-.79,.86-1.1,1.88-.73,3.04,.03,.09,.08,.17,.13,.28,.51-.36,.99-.75,1.51-1.06,.94-.58,1.92-1.09,3.09-.86,.23,.05,.47,.12,.69,.22,.36,.17,.55,.45,.39,.86-.15,.39-.53,.58-.94,.47-.05-.01-.09-.03-.14-.05-1.67-.7-2.9-.4-4.13,1.02,.54,.57,1.24,.77,1.98,.84,1.76,.18,3.03-.68,4.07-1.98,1.09-1.37,1.78-2.95,2.38-4.57,.33-.89,.61-1.79,.84-2.73-.29,.29-.57,.58-.87,.86-.58,.54-1.2,1.03-2.04,1.13-1.08,.12-1.87-.6-1.59-1.65,.32-1.22,.83-2.4,1.26-3.6,.23-.64,.46-1.27,.65-1.92,.05-.18-.06-.41-.1-.62-.22,.05-.48,.05-.66,.16-.24,.15-.41,.4-.63,.6-.14,.13-.31,.24-.46,.36-.04-.03-.08-.05-.12-.08,.03-.11,.01-.26,.08-.33,.48-.49,.92-1.06,1.48-1.43,.85-.56,1.7-.07,1.61,.93-.08,.9-.33,1.8-.6,2.67-.25,.8-.65,1.55-.94,2.33-.13,.36-.22,.75-.24,1.12-.03,.52,.28,.76,.78,.6,.37-.12,.74-.32,1.06-.56,1.06-.83,1.77-1.91,2.21-3.17,.27-.78,.5-1.57,.8-2.33,.28-.72,.65-1.39,1.51-1.56,.16-.03,.32,0,.45,0Zm-32.16,14.96c.49,.38,.87,.72,1.29,1.02,1.63,1.18,3.43,1.88,5.48,1.87,.36,0,.47-.12,.47-.48,0-.87-.17-1.7-.6-2.46-.43-.75-1.03-1.3-1.91-1.42-1.75-.25-3.23,.43-4.72,1.47Zm-9.12-12.82c-.23-.8-.64-1.18-1.17-1.12-.18,.02-.44,.2-.48,.35-.03,.16,.13,.48,.27,.52,.41,.13,.86,.16,1.38,.24Z"/>
      <path class="cls-12" d="M68.2,59.36c-.56,1.31-1.19,2.58-1.66,3.91-.86,2.45-1.63,4.93-2.44,7.4-.06,.2-.15,.41-.13,.61,.02,.23,.08,.6,.22,.65,.23,.08,.56,.01,.79-.11,.19-.1,.3-.37,.45-.55,.1-.13,.21-.25,.4-.48,.04,.23,.09,.34,.06,.42-.34,.85-.88,1.51-1.83,1.69-.8,.15-1.39-.33-1.36-1.14,.02-.49,.09-1,.24-1.47,1.14-3.46,2.27-6.93,3.94-10.19,.16-.31,.33-.62,.54-1.02-.55-.17-1.06-.35-1.58-.49-1.74-.49-3.39-.33-4.89,.76-.65,.47-1.11,1.08-1.12,1.93-.01,.63,.32,.97,.95,.93,.27-.02,.54-.18,.8-.15,.29,.03,.67,.13,.82,.33,.13,.18,.11,.63-.03,.82-.14,.19-.51,.21-.78,.3-.04,.01-.09-.01-.14-.03-.93-.31-1.85-.69-2.04-1.77-.19-1.09,.35-1.94,1.21-2.57,1.79-1.31,3.79-1.53,5.9-1.09,.44,.09,.94,.37,1.29,.24,.33-.12,.51-.66,.76-1.02,1.84-2.62,4.17-4.62,7.27-5.58,1.83-.57,3.7-.79,5.54-.01,2.25,.95,2.85,3.16,1.35,5.11-1.19,1.55-2.87,2.37-4.71,2.87-3.1,.85-6.2,.63-9.27-.17-.15-.04-.31-.07-.56-.13Zm.47-.72c.1,.06,.15,.11,.21,.13,2.83,.93,5.72,1.29,8.67,.7,1.76-.35,3.22-1.24,4.24-2.73,1.16-1.69,.57-3.72-1.31-4.55-1.55-.68-3.15-.69-4.72-.13-3.29,1.16-5.41,3.61-7.1,6.58Z"/>
      <path class="cls-8" d="M44.04,43.36c.8-1.49,1.37-1.91,2.11-1.63-1.01,1.73-1.47,3.66-2.03,5.55-.14,.46-.18,.95-.19,1.43-.01,.56,.39,.76,.83,.41,.27-.21,.43-.55,.66-.81,.09-.11,.24-.17,.36-.25,.01,.14,.08,.31,.03,.43-.33,.77-.86,1.36-1.68,1.64-1.05,.35-1.78-.24-1.68-1.33,.03-.35,.11-.7,.16-1.01-.5,.51-.99,1.07-1.55,1.56-.55,.49-1.21,.82-1.98,.75-1.15-.11-1.89-1.13-1.81-2.45,.06-1,.42-1.92,.92-2.78,.7-1.2,1.55-2.26,2.76-2.98,.22-.13,.46-.24,.7-.32,1.2-.4,2.14,.18,2.33,1.42,.01,.09,.03,.18,.06,.37Zm-5.26,4.16c.01,.56,.06,1.11,.61,1.4,.56,.3,1.1,.13,1.6-.18,.95-.6,1.5-1.54,1.94-2.53,.41-.91,.75-1.86,.63-2.89-.14-1.13-.89-1.53-1.84-.89-1.79,1.21-2.65,3-2.93,5.09Z"/>
      <path class="cls-4" d="M45.65,30.12c.41,.12,.83,.21,1.23,.36,.28,.11,.42,.37,.25,.68-.16,.3-.41,.38-.74,.26-2.07-.77-3.42-.43-5,1.27-1.97,2.11-3.3,4.62-4.27,7.3-.95,2.64-1.75,5.33-2.6,8-.06,.2-.12,.42-.08,.61,.04,.21,.15,.53,.3,.58,.22,.07,.56,.02,.74-.12,.26-.22,.41-.57,.64-.84,.09-.11,.25-.16,.38-.23,0,.16,.06,.34,0,.47-.46,.9-1.09,1.62-2.18,1.68-.78,.05-1.3-.45-1.28-1.23,0-.33,.05-.68,.16-.99,1.18-3.22,2.32-6.46,3.61-9.65,.92-2.29,2.24-4.36,4.09-6.04,1.34-1.21,2.89-1.99,4.76-2.11Z"/>
      <path class="cls-3" d="M56.17,66.64c.69-1.31,1.15-1.55,1.82-1.43-.34,.87-.71,1.73-1.01,2.61-.33,.98-.6,1.97-.87,2.97-.07,.27-.08,.58-.06,.86,.02,.46,.31,.62,.68,.37,.24-.16,.4-.45,.6-.67,.11-.13,.23-.25,.38-.41,.07,.14,.1,.18,.1,.22-.07,.97-1.47,2.02-2.4,1.78-.47-.12-.71-.45-.7-.92,0-.41,.06-.83,.08-1.12-.55,.49-1.13,1.09-1.79,1.58-.63,.46-1.37,.6-2.09,.16-.72-.44-1-1.16-.91-1.96,.27-2.36,1.49-4.17,3.52-5.37,1.45-.86,2.49-.02,2.61,1.2,0,.04,.04,.08,.06,.13Zm-4.78,3.51c-.04,1.26,.33,1.81,1.02,1.77,.31-.02,.64-.12,.91-.27,.82-.46,1.29-1.24,1.69-2.06,.46-.95,.84-1.92,.67-3.01-.14-.87-.71-1.16-1.51-.77-.13,.06-.26,.13-.37,.22-1.4,1.16-2.2,2.65-2.41,4.13Z"/>
      <path class="cls-13" d="M69.69,65.1c.62-.16,1.27-.16,1.88,.04,.08,.02,.15,.05,.22,.08,.76,.33,.96,1.33,.41,1.95-.32,.37-.77,.42-1.11,.13-.36-.3-.36-.78-.04-1.16,0,0,0,0,0,0,.2-.25,.08-.64-.24-.71,0,0,0,0,0,0-.55-.11-1.06,.04-1.5,.38-.44,.34-.54,.89-.17,1.43,.38,.55,.89,1.01,1.31,1.54,.33,.43,.73,.86,.87,1.36,.37,1.25-.4,2.4-1.73,2.71-.88,.2-1.77,.19-2.6-.22-.74-.36-1.06-1.22-.67-1.92,.14-.25,.49-.48,.78-.52,.2-.03,.52,.21,.67,.41,.22,.29,.09,.6-.14,.88-.31,.38-.23,.69,.23,.9,.64,.3,1.66,.05,2.07-.5,.38-.51,.32-1.34-.2-1.91-.47-.51-.98-.98-1.46-1.48-1.18-1.23-.51-2.52,.6-3.11,.24-.13,.51-.21,.78-.28Z"/>
    </g>
    <g>
      <path class="cls-14" d="M26.55,33.85c-.09,.2-.13,.3-.17,.4-.66,1.39-1.42,2.75-1.97,4.19-.88,2.29-1.6,4.63-2.44,6.94-.49,1.35-1.08,2.66-2.06,3.75-1.3,1.46-3.71,1.19-4.59,.38-.63-.59-.81-1.51-.39-2.3,.39-.72,.94-.92,1.87-.68,.26,.07,.51,.05,.56-.27,.06-.34-.2-.45-.45-.41-.63,.09-1.29,.15-1.87,.38-.95,.37-1.4,1.18-1.39,2.18,.01,.92,.62,1.48,1.4,1.81,2.11,.9,4.05,.48,5.81-.89,1.28-1,2-2.39,2.48-3.9,.96-3.03,1.9-6.06,2.87-9.09,.42-1.29,1.14-2.38,2.3-3.14,.14-.09,.22-.27,.32-.41-.18,0-.36-.02-.53,0-.12,.02-.24,.09-.36,.13-1.04,.38-2.11,.59-3.23,.44-1.53-.21-3.07-.4-4.6-.61-1.68-.23-3.32-.15-4.86,.63-2.63,1.34-4.04,3.91-3.61,6.56,.5,3.05,2.93,5.12,6.1,5.15,1.59,.02,3.04-.38,4.17-1.57,.25-.26,.51-.55,.3-.94-.08-.15-.31-.29-.49-.31-.43-.05-.55,.31-.69,.62-.04,.09-.09,.17-.13,.26-.43,.84-1.11,1.34-2.06,1.39-1.97,.1-3.61-.61-4.84-2.15-1.14-1.43-1.32-3.12-1.01-4.87,.43-2.41,2.78-4.39,5.23-4.34,.95,.02,1.89,.17,2.84,.27,1.41,.16,2.81,.35,4.22,.49,.39,.04,.79-.06,1.29-.1Z"/>
      <path class="cls-14" d="M45.65,30.12c-1.88,.13-3.42,.9-4.76,2.11-1.86,1.67-3.17,3.75-4.09,6.04-1.28,3.18-2.42,6.42-3.61,9.65-.11,.31-.16,.66-.16,.99-.01,.79,.5,1.28,1.28,1.23,1.1-.07,1.72-.79,2.18-1.68,.06-.12,0-.31,0-.47-.13,.08-.29,.12-.38,.23-.23,.27-.38,.62-.64,.84-.17,.14-.52,.19-.74,.12-.15-.05-.26-.37-.3-.58-.04-.19,.02-.42,.08-.61,.86-2.67,1.65-5.36,2.6-8,.97-2.68,2.3-5.19,4.27-7.3,1.58-1.69,2.93-2.03,5-1.27,.32,.12,.58,.04,.74-.26,.16-.31,.03-.56-.25-.68-.4-.16-.82-.25-1.23-.36Z"/>
      <path class="cls-14" d="M55.27,49.69c-.07,0-.26-.01-.45-.07-.7-.2-.82-.57-.39-1.15,.1-.14,.17-.32,.18-.48,.04-.43-.26-.8-.67-.88-.41-.09-.85,.17-1.05,.61-.38,.84-.01,1.8,.88,2.17,1.04,.43,2.11,.42,3.17,.06,1.23-.42,1.97-1.75,1.48-2.94-.27-.66-.85-1.19-1.31-1.76-.37-.46-.81-.88-1.13-1.37-.36-.57-.24-1.18,.21-1.53,.53-.4,1.13-.54,1.78-.4,.53,.12,.6,.35,.21,.73-.28,.28-.43,.62-.23,.96,.14,.24,.44,.53,.67,.52,.3,0,.69-.21,.87-.46,.55-.74,.22-1.76-.66-2.05-1.12-.37-2.27-.33-3.26,.33-1.26,.84-1.66,2.08-.48,3.34,.5,.53,1.06,1,1.53,1.55,.27,.32,.51,.74,.56,1.14,.13,.97-.64,1.65-1.92,1.7Z"/>
      <path class="cls-14" d="M48.69,49.69c-.07,0-.26-.01-.45-.07-.7-.2-.82-.57-.39-1.15,.1-.14,.17-.32,.18-.48,.04-.43-.26-.8-.67-.88-.41-.09-.85,.17-1.05,.61-.38,.84-.01,1.8,.88,2.17,1.04,.43,2.11,.42,3.17,.06,1.23-.42,1.97-1.75,1.48-2.94-.27-.66-.85-1.19-1.31-1.76-.37-.46-.81-.88-1.13-1.37-.36-.57-.24-1.18,.21-1.53,.53-.4,1.13-.54,1.78-.4,.53,.12,.6,.35,.21,.73-.28,.28-.43,.62-.23,.96,.14,.24,.44,.53,.67,.52,.3,0,.69-.21,.87-.46,.55-.74,.22-1.76-.66-2.05-1.12-.37-2.27-.33-3.26,.33-1.26,.84-1.66,2.08-.48,3.34,.5,.53,1.06,1,1.53,1.55,.27,.32,.51,.74,.56,1.14,.13,.97-.64,1.65-1.92,1.7Z"/>
      <path class="cls-14" d="M58.54,71.55c0,1.09,.41,1.46,1.19,1.34,.93-.14,1.5-.76,1.92-1.54,.06-.11,.02-.26,.02-.4-.12,.07-.27,.12-.37,.21-.22,.23-.37,.55-.63,.72-.18,.12-.52,.14-.71,.04-.14-.08-.19-.4-.21-.62-.01-.16,.08-.34,.15-.5,.27-.66,.57-1.3,.82-1.96,.31-.83,.66-1.65,.85-2.51,.2-.88-.45-1.49-1.36-1.4-.75,.08-1.3,.53-1.78,1.06-.08,.09-.07,.25-.1,.38,.14-.03,.29-.04,.41-.1,.33-.17,.62-.41,.96-.53,.52-.17,.83,.1,.77,.63-.03,.3-.13,.6-.25,.87-.41,.96-.86,1.91-1.25,2.88-.22,.55-.36,1.13-.44,1.42Z"/>
      <path class="cls-14" d="M54.36,6.16c.52,.07,1.03,.14,1.55,.22,7.76,1.16,14.7,4.21,20.81,9.1,6.77,5.4,11.55,12.22,14.37,20.41,.01,.03,.03,.06,.03,.09-.01,.17-.03,.33-.05,.5-.12-.11-.29-.21-.34-.34-.38-.98-.7-1.98-1.12-2.94-3.96-9.24-10.31-16.36-19.04-21.34-5.2-2.96-10.8-4.78-16.76-5.3-15.14-1.34-27.83,3.67-37.88,15.06-5.67,6.43-9.07,14.01-10.11,22.53-1.63,13.27,1.93,25.03,10.84,35.04,6.49,7.28,14.6,11.88,24.19,13.7,10.11,1.92,19.78,.5,28.91-4.31,3.68-1.94,7.03-4.35,9.87-7.39,1.77-1.89,2.81-4.17,3.18-6.72,.15-1-.3-1.96-.8-2.84-.1-.18-.21-.37-.34-.53-1.07-1.27-1.26-2.75-.88-4.29,.43-1.75,.99-3.47,1.5-5.2,.13-.44,.24-.89,.45-1.33,.04,.23,.06,.47,.11,.7,.17,.69,.31,1.39,.56,2.05,.39,1.01,.61,2.04,.52,3.12-.28,3.13-.54,6.26-.86,9.38-.07,.68-.35,1.33-.53,2.02,.05-.04,.11-.08,.14-.13,2.08-3.19,3.91-6.5,5.02-10.16,.25-.84,.33-1.73,.47-2.61,.09-.55-.12-1-.49-1.41-.64-.7-1.28-1.41-1.89-2.14-1.2-1.43-1.72-3.08-1.51-4.94,.18-1.6,.53-3.19,.25-4.86,.12,.13,.26,.24,.35,.38,1.28,1.97,2.1,4.08,2.2,6.46,.07,1.78,.82,3.4,1.48,5.06,.07-.43,.14-.86,.2-1.28,.25-1.82,.39-3.67-.15-5.43-.52-1.71-.64-3.44-.68-5.2-.02-1.08-.48-2.03-1.04-2.93-.36-.58-.71-1.16-1.04-1.75-.11-.19-.15-.43-.22-.62,.77,.71,1.54,1.38,2.28,2.09,1.15,1.11,1.64,2.52,1.82,4.06,.23,1.93-.06,3.83-.34,5.73-.02,.16-.05,.32-.04,.48,.11,4.14-.83,8.06-2.38,11.86-.48,1.18-1.03,2.32-1.55,3.48,.03,.03,.06,.06,.09,.09,.57-.65,1.2-1.26,1.71-1.96,.55-.75,1.08-1.54,1.44-2.39,.31-.74,.43-1.57,.52-2.38,.11-1.04,.04-2.1,.16-3.14,.19-1.73,1.08-3.19,1.94-4.65,.72-1.22,1.38-2.48,2.06-3.72,.02-.04,.06-.06,.14-.13,0,.2,.03,.35,.02,.5-.06,1.55-.13,3.09-.19,4.64-.05,1.24,0,2.49-.13,3.72-.4,3.43-1.92,6.19-5.01,7.94-1.82,1.03-3.2,2.45-4.33,4.24-2.05,3.27-4.61,6.13-7.7,8.48-.27,.2-.52,.43-.78,.65-.02,.02-.01,.06-.03,.13,1.53-.22,2.94-.71,4.22-1.57,1.43-.96,2.48-2.29,3.6-3.56,1.99-2.27,4.13-4.4,6.57-6.19,1.47-1.08,3.2-1.57,4.97-1.93,.07-.01,.15,0,.29,0-.62,.45-1.2,.85-1.74,1.29-1.47,1.21-2.54,2.78-3.63,4.32-1.07,1.51-2.13,3.04-3.29,4.48-1.06,1.32-2.43,2.3-4.03,2.93-1.04,.41-2.12,.37-3.2,.34-1.44-.04-2.88-.08-4.27,.34-.35,.1-.71,.23-1.01,.43-6.11,4.09-12.82,6.54-20.14,7.25-9.95,.97-19.26-1.05-27.73-6.38-10.73-6.75-17.46-16.39-20.08-28.83-.94-4.44-1.1-8.93-.62-13.43,.7-6.48,2.72-12.52,6.13-18.09,4.45-7.25,10.46-12.81,18.04-16.64,4.88-2.46,10.05-3.93,15.49-4.45,3.21-.27,6.36-.27,9.43,.08Zm33.65,65.54s.05,.04,.06,.04c.06-.02,.12-.03,.18-.06,2.01-1.04,3.3-2.68,4-4.81,.68-2.05,.74-4.18,.79-6.31,.02-.81,0-1.63,0-2.44-.12,.11-.18,.24-.21,.37-.35,1.31-.7,2.61-1.05,3.92-.69,2.6-1.42,5.19-2.73,7.57-.32,.58-.69,1.14-1.03,1.72Zm-5.65-9.31c-.46,1.04-1.1,4.16-1.26,5.52-.21,1.8,.93,2.94,1.79,4.24,.04,0,.08-.02,.12-.02-.22-3.28-.44-6.57-.65-9.73Zm7.34,5.63c1.02-3.37,2.04-6.73,3.06-10.1-2.57,2.9-3.54,6.28-3.06,10.1Zm-6.88-5.45c-.21,.88,.15,5.81,.51,6.97,.65-2.02,.38-5.76-.51-6.97Z"/>
      <path class="cls-14" d="M68.39,41.68c-1.37,2.88-2.12,5.92-3.13,8.87-.74,2.13-1.71,4.12-3.39,5.67-1.61,1.48-3.49,2.17-5.69,1.72-.39-.08-.77-.24-1.12-.43-.28-.15-.43-.13-.64,.11-1.62,1.82-2.91,3.86-4.03,6.01-1.48,2.82-2.64,5.78-3.61,8.81-.06,.19-.15,.41-.3,.53-.51,.4-.89,.28-1.09-.35-.62-1.98-.88-4.03-1.08-6.09-.18-1.81-.32-3.62-.49-5.55-.11,.19-.16,.27-.21,.36-1.44,2.83-2.8,5.71-4.35,8.48-1.54,2.75-3.94,4.28-7.19,4.12-.83-.04-1.7-.29-2.45-.65-1.96-.94-2.46-2.77-1.85-4.95,.53-1.86,2.32-3.29,4.25-3.46,.19-.02,.46,.09,.57,.23,.09,.11,.05,.43-.05,.55-.1,.12-.37,.2-.54,.16-1.32-.29-1.89-.08-2.66,1.05-1.12,1.65-1.05,4.05,.21,5.4,1.03,1.1,2.39,1.31,3.8,1.1,2.47-.37,4.29-1.78,5.44-3.93,1.49-2.78,2.86-5.64,4.27-8.47,.15-.29,.22-.62,.34-1-3.05,.08-5.67-.86-8.02-2.63-1.19,1.2-2.03,2.52-2.17,4.2-.16,1.88,1.2,3.41,3.08,3.5,.51,.02,1.03-.02,1.54-.1,.48-.08,.93-.23,1.15-.77,.06-.15,.36-.24,.56-.27,.1-.01,.34,.2,.32,.27-.04,.2-.13,.44-.29,.55-1.29,.94-3.97,.98-5.31,.12-1.27-.82-1.83-2.4-1.43-4.11,.29-1.26,.92-2.33,1.77-3.29,.1-.11,.2-.21,.29-.32,.02-.02,.02-.06,.04-.14-3.93-3.41-5.93-8-7.52-12.84-.3,.04-.54,.07-.78,.09-.55,.05-1.06-.06-1.49-.43-.34-.29-.46-.66-.32-1.09,.14-.42,.47-.6,.89-.63,.86-.07,1.55,.28,2.05,.96,.22,.3,.39,.29,.67,.1,1.22-.82,2.11-1.94,2.89-3.15,1.14-1.77,2.21-3.6,3.34-5.39,.89-1.41,1.9-2.74,3.23-3.76,.44-.34,1-.58,1.55-.71,.5-.12,.98,.3,1.12,.8,.14,.49-.03,1.05-.49,1.24-.29,.12-.69,.11-1,.04-.35-.08-.45-.42-.42-.78,0-.11-.01-.22-.02-.45-.23,.13-.43,.19-.55,.33-.49,.58-1.01,1.14-1.4,1.78-1.29,2.1-2.5,4.25-3.79,6.36-1.08,1.76-2.51,3.19-4.33,4.19-.07,.04-.13,.09-.17,.12,1.74,4.26,3.66,8.39,6.81,11.81,.12,.13,.26,.24,.37,.39,.21,.28,.4,.26,.68,.06,1.18-.84,2.46-1.41,3.93-1.46,1.7-.06,3.64,.62,4.17,2.98,.07,.31,.06,.72,.26,.92,.41,.4,.2,.8,.25,1.24,.34,3.67,.79,7.34,1.21,11,.02,.21,.11,.42,.17,.63,.04,0,.09,0,.13,.01,.05-.14,.11-.27,.16-.41,1.4-4,3.05-7.89,5.49-11.38,.58-.83,1.25-1.6,1.9-2.38,.2-.24,.2-.37,.02-.61-.81-1.08-.76-2.5,.19-3.5,1.21-1.29,2.78-1.81,4.51-1.93,.08,0,.19-.02,.24,.03,.13,.11,.24,.25,.35,.38-.15,.11-.29,.26-.46,.33-.1,.04-.25-.05-.37-.08-1.13-.3-2.04,.11-2.78,.92-.79,.86-1.1,1.88-.73,3.04,.03,.09,.08,.17,.13,.28,.51-.36,.99-.75,1.51-1.06,.94-.58,1.92-1.09,3.09-.86,.23,.05,.47,.12,.69,.22,.36,.17,.55,.45,.39,.86-.15,.39-.53,.58-.94,.47-.05-.01-.09-.03-.14-.05-1.67-.7-2.9-.4-4.13,1.02,.54,.57,1.24,.77,1.98,.84,1.76,.18,3.03-.68,4.07-1.98,1.09-1.37,1.78-2.95,2.38-4.57,.33-.89,.61-1.79,.84-2.73-.29,.29-.57,.58-.87,.86-.58,.54-1.2,1.03-2.04,1.13-1.08,.12-1.87-.6-1.59-1.65,.32-1.22,.83-2.4,1.26-3.6,.23-.64,.46-1.27,.65-1.92,.05-.18-.06-.41-.1-.62-.22,.05-.48,.05-.66,.16-.24,.15-.41,.4-.63,.6-.14,.13-.31,.24-.46,.36-.04-.03-.08-.05-.12-.08,.03-.11,.01-.26,.08-.33,.48-.49,.92-1.06,1.48-1.43,.85-.56,1.7-.07,1.61,.93-.08,.9-.33,1.8-.6,2.67-.25,.8-.65,1.55-.94,2.33-.13,.36-.22,.75-.24,1.12-.03,.52,.28,.76,.78,.6,.37-.12,.74-.32,1.06-.56,1.06-.83,1.77-1.91,2.21-3.17,.27-.78,.5-1.57,.8-2.33,.28-.72,.65-1.39,1.51-1.56,.16-.03,.32,0,.45,0Zm-32.16,14.96c.49,.38,.87,.72,1.29,1.02,1.63,1.18,3.43,1.88,5.48,1.87,.36,0,.47-.12,.47-.48,0-.87-.17-1.7-.6-2.46-.43-.75-1.03-1.3-1.91-1.42-1.75-.25-3.23,.43-4.72,1.47Zm-9.12-12.82c-.23-.8-.64-1.18-1.17-1.12-.18,.02-.44,.2-.48,.35-.03,.16,.13,.48,.27,.52,.41,.13,.86,.16,1.38,.24Z"/>
      <path class="cls-14" d="M68.2,59.36c-.56,1.31-1.19,2.58-1.66,3.91-.86,2.45-1.63,4.93-2.44,7.4-.06,.2-.15,.41-.13,.61,.02,.23,.08,.6,.22,.65,.23,.08,.56,.01,.79-.11,.19-.1,.3-.37,.45-.55,.1-.13,.21-.25,.4-.48,.04,.23,.09,.34,.06,.42-.34,.85-.88,1.51-1.83,1.69-.8,.15-1.39-.33-1.36-1.14,.02-.49,.09-1,.24-1.47,1.14-3.46,2.27-6.93,3.94-10.19,.16-.31,.33-.62,.54-1.02-.55-.17-1.06-.35-1.58-.49-1.74-.49-3.39-.33-4.89,.76-.65,.47-1.11,1.08-1.12,1.93-.01,.63,.32,.97,.95,.93,.27-.02,.54-.18,.8-.15,.29,.03,.67,.13,.82,.33,.13,.18,.11,.63-.03,.82-.14,.19-.51,.21-.78,.3-.04,.01-.09-.01-.14-.03-.93-.31-1.85-.69-2.04-1.77-.19-1.09,.35-1.94,1.21-2.57,1.79-1.31,3.79-1.53,5.9-1.09,.44,.09,.94,.37,1.29,.24,.33-.12,.51-.66,.76-1.02,1.84-2.62,4.17-4.62,7.27-5.58,1.83-.57,3.7-.79,5.54-.01,2.25,.95,2.85,3.16,1.35,5.11-1.19,1.55-2.87,2.37-4.71,2.87-3.1,.85-6.2,.63-9.27-.17-.15-.04-.31-.07-.56-.13Zm.47-.72c.1,.06,.15,.11,.21,.13,2.83,.93,5.72,1.29,8.67,.7,1.76-.35,3.22-1.24,4.24-2.73,1.16-1.69,.57-3.72-1.31-4.55-1.55-.68-3.15-.69-4.72-.13-3.29,1.16-5.41,3.61-7.1,6.58Z"/>
      <path class="cls-14" d="M44.04,43.36c.8-1.49,1.37-1.91,2.11-1.63-1.01,1.73-1.47,3.66-2.03,5.55-.14,.46-.18,.95-.19,1.43-.01,.56,.39,.76,.83,.41,.27-.21,.43-.55,.66-.81,.09-.11,.24-.17,.36-.25,.01,.14,.08,.31,.03,.43-.33,.77-.86,1.36-1.68,1.64-1.05,.35-1.78-.24-1.68-1.33,.03-.35,.11-.7,.16-1.01-.5,.51-.99,1.07-1.55,1.56-.55,.49-1.21,.82-1.98,.75-1.15-.11-1.89-1.13-1.81-2.45,.06-1,.42-1.92,.92-2.78,.7-1.2,1.55-2.26,2.76-2.98,.22-.13,.46-.24,.7-.32,1.2-.4,2.14,.18,2.33,1.42,.01,.09,.03,.18,.06,.37Zm-5.26,4.16c.01,.56,.06,1.11,.61,1.4,.56,.3,1.1,.13,1.6-.18,.95-.6,1.5-1.54,1.94-2.53,.41-.91,.75-1.86,.63-2.89-.14-1.13-.89-1.53-1.84-.89-1.79,1.21-2.65,3-2.93,5.09Z"/>
      <path class="cls-14" d="M45.65,30.12c.41,.12,.83,.21,1.23,.36,.28,.11,.42,.37,.25,.68-.16,.3-.41,.38-.74,.26-2.07-.77-3.42-.43-5,1.27-1.97,2.11-3.3,4.62-4.27,7.3-.95,2.64-1.75,5.33-2.6,8-.06,.2-.12,.42-.08,.61,.04,.21,.15,.53,.3,.58,.22,.07,.56,.02,.74-.12,.26-.22,.41-.57,.64-.84,.09-.11,.25-.16,.38-.23,0,.16,.06,.34,0,.47-.46,.9-1.09,1.62-2.18,1.68-.78,.05-1.3-.45-1.28-1.23,0-.33,.05-.68,.16-.99,1.18-3.22,2.32-6.46,3.61-9.65,.92-2.29,2.24-4.36,4.09-6.04,1.34-1.21,2.89-1.99,4.76-2.11Z"/>
      <path class="cls-14" d="M56.17,66.64c.69-1.31,1.15-1.55,1.82-1.43-.34,.87-.71,1.73-1.01,2.61-.33,.98-.6,1.97-.87,2.97-.07,.27-.08,.58-.06,.86,.02,.46,.31,.62,.68,.37,.24-.16,.4-.45,.6-.67,.11-.13,.23-.25,.38-.41,.07,.14,.1,.18,.1,.22-.07,.97-1.47,2.02-2.4,1.78-.47-.12-.71-.45-.7-.92,0-.41,.06-.83,.08-1.12-.55,.49-1.13,1.09-1.79,1.58-.63,.46-1.37,.6-2.09,.16-.72-.44-1-1.16-.91-1.96,.27-2.36,1.49-4.17,3.52-5.37,1.45-.86,2.49-.02,2.61,1.2,0,.04,.04,.08,.06,.13Zm-4.78,3.51c-.04,1.26,.33,1.81,1.02,1.77,.31-.02,.64-.12,.91-.27,.82-.46,1.29-1.24,1.69-2.06,.46-.95,.84-1.92,.67-3.01-.14-.87-.71-1.16-1.51-.77-.13,.06-.26,.13-.37,.22-1.4,1.16-2.2,2.65-2.41,4.13Z"/>
      <path class="cls-14" d="M69.69,65.1c.62-.16,1.27-.16,1.88,.04,.08,.02,.15,.05,.22,.08,.76,.33,.96,1.33,.41,1.95-.32,.37-.77,.42-1.11,.13-.36-.3-.36-.78-.04-1.16,0,0,0,0,0,0,.2-.25,.08-.64-.24-.71,0,0,0,0,0,0-.55-.11-1.06,.04-1.5,.38-.44,.34-.54,.89-.17,1.43,.38,.55,.89,1.01,1.31,1.54,.33,.43,.73,.86,.87,1.36,.37,1.25-.4,2.4-1.73,2.71-.88,.2-1.77,.19-2.6-.22-.74-.36-1.06-1.22-.67-1.92,.14-.25,.49-.48,.78-.52,.2-.03,.52,.21,.67,.41,.22,.29,.09,.6-.14,.88-.31,.38-.23,.69,.23,.9,.64,.3,1.66,.05,2.07-.5,.38-.51,.32-1.34-.2-1.91-.47-.51-.98-.98-1.46-1.48-1.18-1.23-.51-2.52,.6-3.11,.24-.13,.51-.21,.78-.28Z"/>
    </g>
  </g>
</svg>